<?xml version="1.0" standalone="no"?>
<!DOCTYPE svg PUBLIC "-//W3C//DTD SVG 20010904//EN"
 "http://www.w3.org/TR/2001/REC-SVG-20010904/DTD/svg10.dtd">
<svg version="1.0" xmlns="http://www.w3.org/2000/svg"
 width="2981.000000pt" height="2981.000000pt" viewBox="0 0 2981.000000 2981.000000"
 preserveAspectRatio="xMidYMid meet">
<metadata>
Created by potrace 1.11, written by Peter Selinger 2001-2013
</metadata>
<g transform="translate(0.000000,2981.000000) scale(0.100000,-0.100000)"
fill="#000000" stroke="none">
<path d="M14747 24854 c-1 -1 -74 -5 -162 -9 -88 -3 -176 -8 -195 -10 -19 -1
-80 -6 -135 -10 -55 -3 -107 -8 -115 -10 -13 -3 -89 -11 -185 -20 -16 -2 -43
-6 -60 -8 -16 -3 -50 -9 -75 -12 -90 -12 -243 -39 -340 -60 -14 -3 -36 -7 -50
-10 -369 -69 -1176 -319 -1465 -454 -33 -15 -103 -48 -155 -72 -626 -288
-1296 -711 -1765 -1113 -360 -309 -734 -683 -980 -981 -28 -33 -52 -62 -55
-65 -3 -3 -46 -57 -96 -120 -82 -104 -136 -177 -244 -325 -52 -73 -117 -173
-202 -315 -41 -69 -112 -186 -158 -260 -120 -195 -413 -798 -466 -960 -8 -25
-19 -54 -24 -65 -91 -200 -305 -905 -365 -1210 -5 -22 -9 -42 -10 -45 0 -3 -4
-21 -8 -40 -4 -19 -9 -46 -12 -60 -11 -49 -26 -125 -30 -150 -2 -14 -11 -70
-20 -125 -9 -55 -18 -111 -20 -125 -6 -39 -24 -189 -30 -255 -3 -33 -8 -76
-11 -95 -5 -36 -12 -155 -19 -320 -2 -52 -8 -162 -12 -245 -11 -231 -3 -5845
11 -7505 3 -289 8 -950 11 -1470 4 -520 7 -1028 8 -1130 l1 -185 -1789 3
-1790 2 2 -567 c1 -313 4 -1430 7 -2483 3 -1053 5 -1965 6 -2026 l0 -111 968
3 c4658 13 6177 19 7197 29 1233 12 2416 23 3260 30 325 3 802 7 1060 10 259
3 736 7 1060 10 325 3 788 8 1030 10 242 2 712 7 1045 10 610 5 1084 10 1900
20 577 7 1126 13 1735 20 270 3 641 7 825 10 184 2 590 7 901 10 793 9 809 9
809 18 0 4 -73 7 -162 8 -90 0 -287 2 -438 4 -271 3 -1020 12 -1770 20 -212 3
-587 7 -835 10 -247 3 -639 7 -870 10 -781 9 -1348 15 -1860 20 -280 3 -744 7
-1030 10 -286 3 -758 7 -1050 10 -291 3 -773 7 -1070 10 -720 7 -1354 13
-2145 20 -360 3 -862 7 -1115 10 -2029 22 -2480 24 -7555 40 -723 2 -1364 4
-1425 4 l-110 1 2 532 c1 293 4 1292 6 2221 2 928 6 1689 8 1691 4 4 1817 10
6719 21 2393 6 4632 14 5395 20 535 4 1494 11 2750 20 1276 9 2110 16 3500 30
308 3 774 8 1035 10 834 7 1664 16 2046 20 l372 5 0 -43 c0 -23 3 -242 6 -487
9 -569 14 -893 21 -1415 3 -231 8 -546 10 -700 2 -154 7 -473 10 -710 4 -236
8 -542 10 -680 2 -137 4 -308 4 -379 1 -71 3 -127 6 -124 5 5 13 416 30 1683
2 171 7 492 10 715 10 694 14 949 20 1450 4 267 8 557 10 646 2 88 0 166 -4
172 -4 7 -210 12 -661 17 -360 3 -835 8 -1055 10 -220 2 -692 7 -1050 10 -357
3 -704 7 -770 10 -184 7 -615 21 -915 30 -102 3 -250 8 -330 10 -80 2 -248 7
-375 10 -126 3 -302 7 -390 10 -88 3 -270 7 -405 10 -135 3 -330 8 -435 10
-104 2 -291 7 -415 10 -222 5 -488 11 -870 20 -107 2 -298 7 -425 10 -265 6
-497 12 -885 21 -151 3 -314 7 -362 8 -48 1 -89 4 -92 7 -2 2 39 92 92 200 53
107 123 249 154 315 31 65 93 195 137 288 45 92 81 169 81 171 0 2 20 45 44
97 88 189 206 447 266 583 34 77 73 164 86 193 13 29 24 54 24 56 0 3 15 37
34 78 19 40 57 127 86 193 29 66 58 134 66 150 7 17 42 98 77 181 l64 151
-186 108 c-102 60 -256 150 -341 200 -313 185 -700 406 -1035 592 -49 28 -108
60 -130 73 -22 12 -116 65 -210 117 -93 53 -174 99 -180 103 -5 4 -48 28 -95
52 -47 25 -116 62 -155 83 -83 45 -285 154 -370 200 -120 65 -312 168 -375
203 -36 19 -108 58 -160 85 -52 27 -115 61 -140 75 -25 14 -85 46 -135 72 -49
26 -155 81 -235 123 -80 42 -187 98 -239 125 l-93 48 -52 100 c-29 54 -82 155
-118 224 -36 69 -83 159 -105 200 -22 41 -66 125 -98 185 -59 113 -112 213
-195 370 -26 50 -71 135 -100 190 -29 55 -72 136 -95 180 -107 203 -147 278
-205 390 -35 66 -77 147 -95 180 -46 86 -175 331 -305 580 -34 66 -77 147 -95
180 -18 33 -101 191 -185 350 -84 160 -169 322 -190 360 -21 39 -64 120 -95
180 -32 61 -75 142 -95 180 -21 39 -72 138 -115 220 -89 172 -105 196 -70 104
13 -35 108 -289 210 -564 103 -275 251 -673 330 -885 79 -212 167 -448 195
-525 104 -280 212 -571 235 -630 13 -33 38 -98 55 -145 92 -252 112 -307 120
-325 5 -11 48 -126 95 -255 47 -129 91 -246 97 -260 5 -14 25 -68 44 -120 19
-52 38 -104 43 -115 5 -11 52 -136 105 -279 l95 -258 -97 -135 c-53 -74 -104
-144 -112 -156 -8 -12 -51 -74 -96 -137 -119 -169 -341 -489 -633 -913 -68
-98 -533 -789 -571 -847 -5 -8 -67 -103 -138 -210 -116 -175 -166 -253 -307
-470 -198 -306 -738 -1170 -813 -1302 -7 -13 -23 -39 -35 -59 -12 -20 -71
-120 -131 -222 l-108 -185 -282 3 c-259 4 -1157 13 -1733 19 -134 1 -245 5
-249 8 -7 8 -6 158 11 2513 3 462 8 1348 10 1970 l3 1130 180 175 c100 96 313
304 474 461 161 158 334 326 383 374 50 48 230 223 400 390 171 166 353 345
407 396 53 52 230 225 393 384 163 160 341 333 395 385 54 52 236 230 405 395
169 165 343 335 388 378 44 42 76 77 71 77 -6 0 -19 -8 -30 -17 -11 -10 -62
-47 -114 -82 -80 -54 -417 -286 -785 -540 -49 -34 -133 -92 -185 -127 -99 -68
-247 -170 -410 -282 -157 -109 -300 -207 -390 -269 -76 -52 -564 -388 -838
-577 -56 -39 -164 -114 -240 -166 -76 -52 -217 -149 -313 -215 -95 -66 -177
-121 -181 -123 -7 -4 -2 3436 6 3548 3 41 8 141 11 222 4 81 8 158 10 170 2
13 6 61 10 108 3 47 8 94 10 105 2 11 7 47 10 80 4 32 8 62 10 65 1 3 6 34 9
69 4 36 8 67 10 70 2 3 7 28 10 56 4 27 14 83 22 125 8 41 17 86 20 100 18 93
84 363 125 510 69 251 97 342 173 550 37 102 68 190 71 197 3 8 24 6 77 -8
153 -41 623 -160 682 -173 33 -8 129 -30 212 -50 84 -19 163 -37 175 -40 38
-7 296 -65 390 -87 48 -11 95 -21 105 -23 11 -2 96 -20 189 -40 94 -19 181
-37 195 -40 14 -2 71 -14 128 -25 56 -11 115 -23 130 -26 15 -3 38 -7 52 -10
14 -3 39 -8 55 -10 17 -3 37 -8 45 -10 8 -2 29 -7 45 -10 72 -12 91 -16 105
-20 8 -2 31 -7 50 -10 19 -3 69 -13 110 -21 41 -9 111 -22 155 -29 44 -8 94
-17 110 -20 17 -3 44 -7 60 -10 17 -3 41 -7 55 -10 14 -3 41 -8 60 -11 38 -6
355 -61 540 -95 63 -11 126 -22 140 -23 21 -3 75 -12 190 -31 14 -2 63 -11
110 -19 47 -8 105 -17 130 -21 25 -3 68 -10 95 -15 28 -5 68 -12 90 -15 45 -6
157 -24 196 -30 15 -3 47 -7 70 -10 24 -3 55 -7 69 -10 14 -2 45 -7 70 -10 25
-3 70 -10 100 -15 30 -5 78 -12 105 -15 28 -3 61 -8 75 -10 52 -7 116 -17 140
-20 14 -2 43 -6 65 -9 22 -3 60 -8 85 -11 25 -4 56 -8 70 -10 14 -2 63 -9 110
-15 47 -6 96 -13 110 -15 14 -3 50 -7 80 -10 30 -4 62 -8 70 -11 8 -2 42 -6
75 -9 33 -3 67 -8 75 -10 8 -2 42 -7 75 -10 33 -4 71 -8 85 -10 14 -2 66 -9
115 -15 97 -12 143 -18 190 -25 17 -2 57 -7 90 -10 33 -4 69 -8 80 -10 19 -4
300 -118 372 -151 18 -8 51 -21 73 -29 22 -8 55 -21 73 -29 17 -8 232 -96 477
-196 245 -100 459 -188 475 -195 17 -7 91 -38 165 -68 74 -31 241 -99 370
-152 129 -53 357 -146 505 -206 149 -61 284 -117 300 -124 17 -7 71 -29 120
-49 50 -20 99 -41 110 -46 11 -5 175 -72 365 -150 190 -77 355 -145 368 -150
12 -6 32 -14 45 -20 12 -5 101 -41 197 -80 96 -39 184 -75 195 -80 11 -5 160
-66 330 -136 171 -69 329 -135 352 -145 23 -10 44 -19 47 -19 3 0 88 -34 188
-75 101 -42 192 -80 203 -84 11 -5 31 -13 45 -19 14 -6 42 -18 63 -26 20 -8
38 -21 39 -28 4 -39 7 -145 12 -548 4 -245 9 -546 11 -670 13 -691 16 -818 20
-955 11 -338 16 -509 20 -680 6 -220 13 -485 20 -665 3 -74 7 -216 10 -315 3
-99 7 -229 10 -290 2 -60 7 -177 10 -260 3 -82 8 -197 10 -255 3 -58 7 -166
10 -240 6 -165 13 -307 19 -420 3 -47 8 -152 11 -235 3 -82 8 -177 10 -210 3
-33 7 -111 10 -173 3 -62 7 -145 10 -185 3 -39 7 -121 10 -182 3 -60 7 -141
10 -180 3 -38 7 -110 10 -160 3 -49 7 -121 10 -160 2 -38 7 -115 10 -170 3
-55 8 -118 10 -140 2 -22 7 -89 10 -150 4 -60 8 -126 10 -145 5 -50 18 -249
19 -287 1 -34 15 -47 17 -15 0 9 2 33 3 52 2 19 6 87 10 150 4 63 9 138 11
165 5 49 11 139 20 265 3 36 7 108 10 160 2 52 7 127 10 165 7 96 21 335 30
515 3 63 8 140 10 170 2 30 6 116 10 190 3 74 8 169 10 210 2 41 7 125 10 185
3 61 7 157 10 215 3 58 7 161 10 230 3 69 7 172 10 230 3 58 7 166 10 240 3
74 7 191 10 260 3 69 7 197 10 285 3 88 8 210 10 270 2 61 7 202 10 315 3 113
8 266 10 340 3 74 7 225 10 335 3 110 7 272 10 360 12 389 23 910 30 1385 2
168 7 472 11 675 9 510 10 1239 1 1420 -13 254 -25 413 -32 425 -2 3 -6 30 -9
60 -4 30 -8 66 -10 80 -6 35 -15 92 -27 175 -8 59 -22 138 -45 254 -23 113
-143 552 -179 655 -153 431 -315 775 -552 1173 -253 423 -537 788 -883 1133
-199 199 -337 323 -490 440 -25 19 -52 40 -60 47 -8 7 -33 26 -55 43 -22 16
-53 40 -69 53 -90 69 -288 200 -456 302 -249 151 -456 256 -767 391 -217 95
-645 235 -898 293 -49 12 -108 26 -130 31 -22 5 -67 15 -100 22 -33 6 -62 12
-65 13 -3 1 -30 5 -60 9 -30 4 -62 9 -70 11 -8 1 -50 8 -93 15 -43 6 -88 13
-100 15 -35 5 -138 17 -182 20 -22 2 -74 7 -115 10 -161 14 -608 21 -750 11
-169 -12 -257 -19 -270 -21 -8 -2 -49 -6 -90 -10 -41 -4 -140 -18 -220 -31
-80 -14 -156 -26 -170 -29 -20 -3 -219 -46 -320 -70 -110 -26 -374 -106 -511
-156 -319 -115 -659 -270 -882 -403 -43 -25 -81 -46 -83 -46 -3 0 -17 -8 -32
-19 -15 -10 -65 -42 -112 -72 -106 -67 -295 -199 -286 -199 3 0 51 23 106 50
333 167 742 326 1091 424 132 37 353 93 404 102 17 2 37 7 45 9 8 2 31 7 50
10 19 3 58 10 85 15 78 15 277 44 375 55 30 3 71 8 90 10 107 14 271 19 570
20 346 0 465 -6 694 -34 48 -6 51 -8 51 -36 1 -17 -5 -55 -12 -85 -18 -79
-109 -527 -118 -585 -2 -11 -15 -83 -29 -160 -14 -77 -28 -153 -31 -170 -11
-63 -16 -92 -25 -140 -5 -27 -11 -63 -14 -80 -7 -47 -26 -167 -32 -195 -2 -14
-6 -41 -9 -60 -3 -19 -7 -46 -10 -60 -2 -13 -7 -42 -10 -65 -3 -22 -15 -92
-25 -155 -10 -63 -22 -135 -25 -160 -3 -25 -8 -58 -11 -75 -5 -33 -9 -59 -19
-125 -4 -25 -8 -56 -10 -70 -3 -14 -7 -45 -10 -70 -3 -25 -7 -56 -10 -70 -2
-14 -7 -47 -10 -75 -7 -55 -8 -62 -31 -220 -16 -109 -18 -125 -30 -219 -3 -27
-7 -56 -9 -65 -1 -9 -6 -47 -9 -85 -4 -38 -9 -72 -10 -75 -2 -3 -7 -40 -11
-81 -4 -41 -9 -84 -11 -95 -2 -11 -7 -45 -10 -75 -3 -30 -7 -64 -9 -75 -2 -11
-4 -35 -4 -53 -1 -27 -4 -32 -18 -28 -10 3 -34 8 -53 10 -19 3 -48 7 -65 10
-53 9 -219 35 -255 40 -19 2 -78 11 -130 20 -52 9 -113 18 -135 21 -22 4 -49
8 -60 9 -11 2 -40 7 -65 10 -25 4 -85 13 -135 21 -49 8 -110 17 -135 20 -25 3
-56 8 -70 10 -14 3 -38 7 -55 9 -54 8 -119 18 -145 21 -14 2 -47 7 -75 11 -27
3 -57 7 -65 9 -31 6 -202 30 -285 40 -27 3 -75 10 -105 15 -30 5 -98 14 -150
20 -52 6 -108 14 -125 16 -16 3 -50 7 -75 10 -41 4 -78 8 -150 19 -14 2 -52 6
-85 10 -33 3 -71 8 -85 10 -14 2 -50 6 -80 9 -30 3 -71 8 -90 10 -19 3 -80 10
-135 16 -55 6 -118 13 -140 17 -22 3 -53 6 -70 8 -61 5 -161 16 -185 20 -14 3
-50 7 -80 10 -67 6 -136 13 -187 19 -21 3 -67 7 -103 11 -36 3 -81 8 -100 10
-59 7 -132 14 -200 20 -66 6 -138 12 -220 20 -25 3 -80 7 -123 11 -43 3 -86 7
-95 9 -10 1 -64 6 -122 10 -58 4 -112 9 -121 10 -9 2 -58 6 -110 10 -52 3
-110 8 -129 10 -19 2 -84 6 -145 10 -60 4 -130 8 -155 10 -25 2 -90 7 -145 10
-55 3 -125 8 -155 10 -95 8 -262 17 -555 30 -194 9 -492 18 -539 16 -46 -1
-48 0 -42 22 6 25 60 141 213 457 90 185 386 689 497 845 140 196 178 246 287
384 63 81 151 187 195 236 43 50 93 106 109 125 60 69 502 509 595 591 52 46
97 86 100 89 29 30 156 131 290 231 568 426 1185 771 1770 989 151 56 289 108
305 115 51 22 152 52 350 105 445 119 451 120 603 145 84 13 98 16 112 20 8 2
35 7 60 9 25 3 86 13 135 21 119 21 131 23 195 29 52 5 79 8 240 21 36 3 85 8
110 10 205 18 734 25 955 11 168 -10 288 -21 405 -37 41 -5 91 -12 110 -14 42
-6 108 -16 135 -21 11 -2 72 -11 136 -19 143 -19 115 -14 349 -70 416 -99 578
-143 655 -175 11 -4 82 -29 157 -54 162 -54 321 -111 363 -130 17 -7 57 -24
90 -37 33 -12 105 -45 160 -72 55 -27 138 -66 185 -87 157 -69 204 -94 340
-173 74 -44 155 -91 180 -105 214 -120 441 -273 825 -555 35 -26 176 -145 190
-161 6 -6 37 -34 70 -61 176 -146 297 -258 474 -439 176 -180 166 -169 395
-436 46 -53 266 -340 337 -440 349 -487 506 -763 764 -1345 140 -317 376
-1011 411 -1214 3 -14 11 -51 19 -81 8 -30 16 -66 19 -80 2 -14 10 -50 16 -80
6 -30 13 -71 16 -90 3 -19 9 -51 14 -70 7 -31 23 -120 35 -205 2 -16 9 -59 14
-95 6 -36 13 -87 16 -115 4 -27 8 -60 10 -73 2 -13 7 -53 10 -90 3 -37 8 -80
10 -97 2 -16 7 -59 10 -95 3 -36 8 -83 10 -105 2 -22 7 -80 10 -130 4 -49 9
-92 11 -94 2 -2 2 85 -1 195 -3 109 -7 278 -10 374 -2 96 -7 189 -9 205 -3 17
-10 71 -16 120 -6 50 -13 104 -15 120 -2 17 -7 57 -10 90 -3 33 -7 74 -10 90
-2 17 -7 53 -10 80 -3 28 -8 64 -10 80 -3 17 -7 48 -11 70 -9 63 -125 571
-149 650 -310 1056 -645 1736 -1269 2575 -71 96 -132 177 -135 180 -4 3 -49
57 -101 120 -52 63 -112 135 -134 160 -23 24 -66 71 -96 105 -73 81 -303 308
-431 426 -57 53 -124 116 -149 139 -25 23 -61 54 -80 69 -19 14 -44 34 -55 43
-82 67 -419 324 -500 381 -275 192 -614 392 -930 552 -433 218 -1002 443
-1290 510 -11 2 -36 9 -55 14 -256 71 -489 131 -531 136 -29 4 -61 8 -71 10
-11 2 -72 13 -136 24 -64 12 -128 23 -142 26 -14 3 -45 8 -70 11 -25 3 -52 7
-60 9 -8 2 -37 7 -65 10 -27 3 -66 8 -85 11 -19 3 -55 8 -80 10 -25 2 -70 6
-100 9 -125 11 -169 15 -255 21 -88 6 -713 13 -718 8z m1110 -2169 c798 -147
1525 -442 2208 -898 109 -73 343 -241 355 -256 3 -3 43 -37 90 -75 197 -158
402 -358 635 -616 236 -262 526 -676 722 -1030 116 -209 275 -562 354 -785 17
-49 35 -99 40 -110 25 -62 63 -180 84 -264 13 -53 40 -157 59 -231 20 -74 40
-160 46 -190 5 -30 12 -66 15 -80 3 -14 7 -38 9 -55 7 -46 15 -98 37 -230 21
-125 24 -152 34 -325 3 -58 8 -145 11 -195 10 -155 21 -852 15 -929 -1 -4 -11
-2 -23 6 -13 8 -72 41 -133 73 -60 32 -123 65 -140 75 -16 9 -70 39 -120 65
-139 73 -357 190 -440 235 -27 15 -90 49 -140 75 -84 44 -156 83 -300 160
-219 117 -317 169 -450 240 -49 27 -110 59 -135 73 -25 13 -83 45 -130 69 -47
25 -107 58 -135 73 -27 15 -95 51 -150 80 -55 29 -122 65 -150 80 -52 28 -139
75 -285 152 -47 25 -173 93 -280 150 -107 58 -249 133 -315 168 -66 34 -133
70 -150 80 -16 9 -70 39 -120 65 -49 26 -117 62 -150 80 -33 18 -95 51 -138
74 -42 22 -112 60 -155 82 -42 23 -104 56 -137 74 -67 36 -164 88 -300 160
-92 48 -190 101 -325 174 -41 23 -104 56 -138 73 l-64 33 6 135 c4 74 9 164
11 200 6 97 16 312 20 425 7 211 17 483 20 545 23 437 22 2177 -1 2304 -6 34
0 34 233 -9z m-2089 -11389 c76 -40 191 -101 257 -136 66 -34 161 -84 210
-110 110 -58 330 -171 610 -315 116 -59 255 -132 310 -161 189 -98 1331 -665
1585 -786 115 -55 405 -192 485 -228 28 -13 51 -24 53 -26 3 -2 -42 -152 -162
-544 -37 -118 -69 -226 -72 -239 -3 -14 -7 -28 -10 -32 -6 -10 -149 -505 -209
-724 -25 -88 -49 -174 -55 -192 -6 -18 -13 -42 -15 -54 -2 -12 -12 -46 -20
-76 -9 -30 -25 -87 -35 -126 -10 -40 -26 -97 -34 -127 -8 -30 -17 -66 -20 -80
-2 -14 -13 -59 -25 -100 -11 -41 -25 -93 -30 -115 -10 -39 -12 -40 -48 -38
-66 3 -891 19 -1498 28 -422 6 -783 11 -1355 20 -201 3 -504 7 -675 10 -170 2
-481 7 -690 10 -820 13 -939 14 -1505 20 -321 3 -586 7 -587 8 -1 2 19 25 44
52 151 164 649 740 848 980 55 66 102 122 105 125 9 8 294 350 395 475 49 61
92 112 95 115 4 4 534 666 634 792 11 15 31 39 43 55 81 102 285 364 392 502
69 90 154 201 189 245 34 45 184 243 334 441 261 346 307 405 316 405 2 0 65
-33 140 -74z"/>
<path d="M16307 17004 c-1 -1 -72 -5 -157 -8 -85 -4 -173 -9 -195 -11 -22 -2
-92 -7 -155 -10 -63 -3 -137 -7 -165 -9 -27 -2 -99 -7 -160 -10 -60 -4 -126
-9 -145 -11 -19 -2 -75 -7 -125 -10 -49 -4 -108 -8 -130 -10 -22 -2 -76 -7
-120 -10 -44 -3 -98 -8 -120 -10 -22 -2 -76 -7 -120 -10 -44 -4 -96 -8 -115
-10 -19 -2 -73 -6 -120 -10 -47 -3 -98 -8 -115 -10 -16 -2 -61 -7 -100 -10
-38 -4 -81 -8 -95 -10 -14 -2 -54 -6 -90 -10 -36 -3 -81 -8 -100 -10 -19 -3
-64 -7 -100 -10 -36 -3 -76 -7 -90 -10 -14 -2 -54 -6 -90 -10 -36 -3 -81 -8
-100 -10 -19 -3 -57 -7 -85 -10 -121 -14 -343 -42 -395 -50 -14 -2 -49 -7 -79
-10 -30 -4 -61 -8 -70 -10 -9 -1 -43 -6 -76 -9 -33 -4 -71 -9 -85 -11 -14 -2
-45 -6 -70 -10 -25 -3 -56 -8 -70 -10 -14 -2 -45 -7 -70 -10 -50 -7 -117 -17
-260 -40 -52 -8 -113 -17 -135 -21 -22 -3 -89 -14 -150 -24 -60 -11 -126 -22
-145 -25 -54 -9 -188 -35 -262 -51 -37 -8 -79 -14 -94 -14 -62 0 -8 -13 96
-24 82 -8 152 -15 348 -31 31 -2 100 -7 152 -11 52 -3 115 -7 140 -9 25 -2 95
-6 155 -9 61 -4 146 -9 190 -11 44 -3 152 -8 240 -11 88 -3 194 -7 235 -9 595
-27 2056 -27 2815 1 94 4 193 7 221 8 l51 1 255 -250 c257 -252 492 -477 699
-669 35 -33 98 -91 139 -130 117 -110 489 -450 559 -511 19 -17 39 -35 45 -41
30 -28 240 -216 301 -269 38 -33 92 -80 120 -105 28 -25 77 -67 109 -95 33
-27 66 -57 75 -66 91 -90 922 -774 1231 -1014 96 -74 490 -368 509 -380 18
-10 -6 24 -113 165 -78 103 -423 535 -448 562 -7 7 -69 80 -138 163 -103 123
-241 284 -481 560 -15 17 -48 55 -74 85 -26 30 -87 98 -135 150 -47 52 -137
151 -200 220 -95 106 -201 220 -344 374 -16 17 -85 91 -155 165 -69 73 -148
156 -174 185 -310 328 -1019 1045 -1352 1364 l-180 173 -68 -3 c-38 -1 -69 -3
-70 -4z"/>
<path d="M20871 8624 c0 -11 3 -14 6 -6 3 7 2 16 -1 19 -3 4 -6 -2 -5 -13z"/>
<path d="M26002 2185 c0 -16 2 -22 5 -12 2 9 2 23 0 30 -3 6 -5 -1 -5 -18z"/>
<path d="M26002 2125 c0 -16 2 -22 5 -12 2 9 2 23 0 30 -3 6 -5 -1 -5 -18z"/>
<path d="M25550 2012 c0 -10 117 -9 127 1 3 4 -24 7 -60 7 -37 0 -67 -4 -67
-8z"/>
<path d="M25690 2011 c0 -5 9 -7 20 -4 11 3 20 7 20 9 0 2 -9 4 -20 4 -11 0
-20 -4 -20 -9z"/>
<path d="M25815 2010 c5 -8 42 -6 50 1 2 3 -8 5 -25 5 -16 0 -27 -3 -25 -6z"/>
</g>
</svg>
