<?xml version="1.0" standalone="no"?>
<!DOCTYPE svg PUBLIC "-//W3C//DTD SVG 20010904//EN"
 "http://www.w3.org/TR/2001/REC-SVG-20010904/DTD/svg10.dtd">
<svg version="1.0" xmlns="http://www.w3.org/2000/svg"
 width="2511.000000pt" height="2511.000000pt" viewBox="0 0 2511.000000 2511.000000"
 preserveAspectRatio="xMidYMid meet">
<metadata>
Created by potrace 1.14, written by Peter Selinger 2001-2017
</metadata>
<g transform="translate(0.000000,2511.000000) scale(0.100000,-0.100000)"
fill="#000000" stroke="none">
<path d="M14757 24154 c-20 -13 -54 -34 -75 -45 -20 -11 -53 -30 -72 -41 -19
-11 -102 -59 -185 -106 -82 -47 -153 -89 -156 -94 -3 -5 -9 -9 -13 -9 -6 1
-87 -43 -186 -101 -19 -11 -118 -67 -220 -125 -102 -59 -188 -110 -191 -115
-3 -5 -9 -9 -13 -8 -10 2 -260 -141 -268 -154 -4 -6 -8 -8 -8 -3 0 4 -18 -4
-40 -18 -22 -14 -44 -25 -49 -25 -6 0 -15 -8 -20 -17 -6 -10 -11 -15 -11 -11
0 4 -15 -1 -32 -11 -291 -166 -371 -211 -375 -211 -2 0 -9 -5 -16 -10 -7 -6
-48 -31 -92 -56 -170 -97 -244 -140 -300 -172 -22 -12 -48 -25 -57 -29 -10 -3
-18 -9 -18 -13 0 -4 -11 -11 -25 -14 -14 -4 -25 -11 -25 -16 0 -6 -4 -10 -9
-10 -8 0 -57 -27 -256 -140 -16 -10 -52 -30 -80 -47 -27 -16 -57 -32 -65 -36
-8 -5 -24 -13 -35 -20 -11 -7 -83 -48 -160 -91 -77 -44 -141 -83 -143 -88 -2
-4 -8 -8 -13 -8 -6 0 -85 -43 -177 -96 -92 -53 -187 -108 -212 -122 -25 -14
-108 -61 -185 -105 -77 -44 -150 -85 -162 -91 -13 -6 -23 -14 -23 -18 0 -5 -5
-8 -11 -8 -5 0 -56 -26 -112 -59 -56 -32 -122 -70 -147 -84 -150 -84 -277
-158 -287 -167 -7 -5 -15 -10 -19 -10 -3 0 -40 -20 -81 -45 -40 -25 -75 -45
-77 -45 -3 0 -233 -132 -281 -161 -16 -10 -46 -26 -65 -36 -19 -9 -37 -19 -40
-22 -3 -4 -18 -13 -35 -21 -16 -8 -53 -29 -82 -47 -29 -18 -57 -33 -63 -33 -5
0 -10 -3 -10 -8 0 -4 -18 -15 -40 -25 -22 -9 -40 -21 -40 -25 0 -5 -6 -9 -12
-9 -13 0 -348 -190 -358 -202 -3 -3 -12 -7 -20 -9 -8 -2 -22 -9 -30 -16 -8 -6
-35 -22 -60 -35 -25 -13 -52 -29 -60 -35 -8 -6 -32 -20 -52 -30 -21 -11 -38
-23 -38 -28 0 -4 -4 -7 -8 -5 -6 2 -127 -63 -192 -103 -8 -6 -89 -52 -180
-103 -91 -52 -430 -246 -755 -432 -324 -186 -608 -348 -630 -360 -22 -13 -85
-49 -140 -80 -55 -32 -113 -65 -130 -73 -16 -9 -32 -18 -35 -22 -3 -3 -31 -19
-62 -35 -32 -17 -58 -33 -58 -37 0 -5 -4 -8 -10 -8 -15 0 -255 -140 -258 -150
-2 -6 -8 -8 -13 -5 -7 5 -50 -18 -135 -73 -10 -6 -28 -16 -39 -22 -11 -5 -42
-23 -70 -40 -27 -16 -57 -33 -65 -37 -8 -4 -37 -20 -65 -36 -27 -17 -68 -40
-90 -52 -22 -13 -110 -63 -195 -112 -85 -49 -162 -92 -170 -96 -8 -4 -24 -13
-35 -20 -11 -7 -114 -66 -230 -132 -115 -66 -212 -122 -215 -125 -3 -3 -16
-11 -30 -17 -14 -7 -43 -23 -65 -36 -22 -12 -71 -40 -110 -62 -38 -21 -72 -41
-75 -44 -3 -3 -30 -19 -60 -35 -30 -16 -62 -35 -71 -42 -8 -8 -20 -14 -26 -14
-38 0 -37 47 -39 -2203 0 -1195 -2 -2175 -3 -2180 0 -4 -11 -12 -23 -17 -13
-6 -39 -20 -58 -31 -19 -12 -100 -58 -180 -104 -80 -45 -163 -93 -185 -105
-22 -13 -52 -30 -67 -37 -16 -8 -28 -19 -28 -25 0 -6 -3 -8 -6 -5 -6 6 -50
-17 -139 -72 -22 -13 -41 -24 -42 -23 -2 1 -38 -19 -80 -45 -104 -61 -511
-293 -546 -311 -15 -7 -27 -18 -27 -24 0 -6 -3 -8 -7 -5 -3 4 -11 3 -17 -2 -6
-5 -31 -20 -56 -33 -25 -14 -110 -62 -190 -108 -80 -46 -161 -92 -180 -103
-100 -56 -127 -72 -142 -85 -10 -8 -18 -11 -18 -6 0 5 -4 5 -8 -1 -4 -5 -16
-15 -27 -21 -102 -55 -141 -78 -150 -84 -5 -4 -32 -20 -60 -36 -27 -15 -63
-36 -80 -46 -16 -10 -36 -21 -42 -24 -60 -29 -232 -132 -228 -136 3 -2 -1 -5
-7 -5 -12 0 -198 -101 -208 -113 -3 -3 -18 -12 -35 -20 -61 -30 -660 -375
-663 -382 -2 -5 -8 -8 -13 -8 -5 0 -69 -34 -142 -76 -73 -42 -157 -90 -187
-107 -30 -17 -57 -33 -60 -36 -3 -3 -23 -15 -45 -27 -22 -11 -100 -55 -174
-97 -73 -43 -138 -77 -142 -77 -5 0 -9 -3 -9 -8 0 -4 -12 -13 -27 -19 -49 -22
-208 -120 -205 -127 1 -3 2 -2345 2 -5204 l0 -5198 503 1 502 0 0 4914 0 4913
209 119 c115 66 212 119 217 119 4 0 9 4 11 8 2 4 33 24 69 44 93 51 113 62
119 68 5 5 24 16 99 58 25 13 72 40 104 58 32 19 61 34 64 34 3 0 21 11 40 26
18 14 33 22 33 19 0 -4 12 2 28 13 15 10 47 30 72 44 25 14 61 35 80 46 19 11
51 29 70 40 58 32 113 64 145 83 17 11 36 22 44 26 43 20 257 147 262 155 3 5
9 9 13 7 7 -2 364 199 376 211 3 3 23 14 45 26 22 11 96 53 164 92 69 40 128
72 133 72 4 0 8 5 8 10 0 6 5 10 11 10 6 0 48 21 92 48 45 26 103 58 129 72
26 13 45 27 43 30 -2 4 1 7 8 7 7 0 120 62 252 138 132 76 260 149 285 163 25
14 57 33 72 43 14 11 29 19 32 19 6 0 238 132 246 140 3 3 23 14 45 25 22 11
42 22 45 25 3 3 16 11 30 18 35 18 148 83 225 129 11 6 34 19 50 28 17 9 44
24 60 33 17 10 57 33 90 52 33 18 63 38 66 43 3 5 10 8 15 8 5 -1 54 26 109
58 55 32 115 66 133 75 17 9 32 20 32 25 0 4 6 8 13 8 13 0 537 298 546 310 3
5 11 9 16 10 6 1 64 32 130 70 66 39 140 81 165 95 25 14 142 81 260 148 118
68 236 135 261 149 25 14 159 91 298 171 139 80 269 154 289 165 82 45 107 60
112 65 3 3 27 17 54 30 26 14 50 30 53 37 2 6 11 9 19 6 8 -3 14 -1 14 3 0 5
19 18 43 29 23 11 44 23 47 26 3 4 33 21 68 39 34 17 62 35 62 41 0 5 3 8 8 7
9 -4 285 152 294 166 4 6 8 7 8 3 0 -4 20 6 45 23 25 17 45 28 45 24 0 -4 8 0
18 8 9 8 44 30 77 48 68 38 109 61 133 75 10 6 55 32 100 58 l83 48 112 -63
c62 -35 126 -71 142 -81 17 -9 41 -23 55 -29 14 -7 28 -17 31 -22 4 -5 13 -5
20 -1 8 5 11 4 7 0 -6 -7 80 -66 102 -70 5 -1 21 -10 176 -102 57 -33 104 -59
104 -56 0 4 8 -1 18 -9 9 -8 121 -74 247 -146 127 -71 244 -138 262 -149 18
-10 98 -56 180 -103 81 -47 164 -95 185 -106 21 -12 45 -27 53 -34 8 -7 15 -9
15 -5 0 5 8 1 18 -8 9 -8 24 -17 32 -19 8 -2 17 -6 20 -9 5 -6 165 -101 190
-112 8 -4 30 -16 49 -28 111 -67 312 -179 321 -179 5 0 10 -4 10 -10 0 -5 4
-10 9 -10 5 0 55 -27 111 -60 56 -33 104 -60 106 -60 2 0 21 -11 42 -23 20
-13 57 -35 82 -49 47 -26 293 -167 370 -212 25 -15 61 -34 80 -44 19 -9 37
-20 40 -23 15 -17 138 -78 146 -71 5 4 6 3 2 -2 -7 -8 133 -96 153 -96 5 0 9
-4 9 -10 0 -5 4 -10 9 -10 5 0 38 -16 73 -36 34 -20 88 -50 118 -67 30 -16 62
-36 71 -43 8 -8 18 -14 22 -14 6 0 225 -122 277 -155 29 -19 88 -52 195 -113
11 -6 55 -31 97 -56 43 -25 80 -46 83 -46 3 0 23 -11 45 -25 22 -14 40 -23 40
-20 0 3 9 -3 20 -12 10 -9 43 -30 72 -46 29 -16 78 -43 108 -60 30 -16 67 -38
82 -48 14 -11 28 -19 31 -19 2 0 56 -30 118 -66 63 -36 139 -80 169 -97 30
-17 91 -51 135 -77 44 -26 105 -61 135 -78 30 -16 152 -86 270 -154 118 -67
229 -130 245 -138 17 -8 32 -17 35 -20 6 -6 -87 48 839 -482 431 -246 787
-448 792 -448 5 0 9 -4 9 -10 0 -5 4 -10 9 -10 5 0 39 -17 75 -37 l66 -38 0
-4412 0 -4413 -4760 0 -4760 0 0 3155 0 3155 1430 0 1430 0 0 -2735 0 -2735
505 0 505 0 0 63 c0 34 2 1492 3 3239 l2 3178 -2442 0 -2443 0 0 -62 c0 -84
-1 -8240 0 -8253 0 -7 3138 -10 9570 -10 l9570 0 0 8682 c0 5269 -4 8683 -9
8683 -5 0 -55 27 -111 60 -56 33 -103 60 -104 60 -2 0 -70 39 -152 86 -82 48
-155 87 -161 87 -7 0 -13 4 -13 8 0 4 -12 14 -27 21 -16 8 -140 79 -277 158
-138 79 -256 143 -263 143 -7 0 -11 3 -8 5 9 9 -56 43 -68 36 -7 -4 -9 -3 -4
1 6 7 -225 145 -418 250 -67 36 -89 49 -105 61 -8 6 -44 27 -80 47 -66 35
-162 89 -190 107 -8 5 -69 40 -135 77 -66 37 -129 74 -140 80 -11 7 -33 19
-50 28 -16 9 -43 24 -60 35 -16 11 -37 23 -45 27 -8 4 -69 38 -135 77 -212
122 -235 135 -235 128 0 -4 -4 -2 -8 4 -7 10 -323 195 -409 239 -23 12 -48 26
-55 32 -7 6 -34 22 -60 37 -96 53 -145 80 -216 123 -41 24 -75 43 -77 43 -2 0
-49 27 -105 60 -56 33 -103 60 -105 60 -2 0 -32 17 -66 38 -35 21 -77 44 -94
52 -16 8 -32 18 -35 21 -9 10 -642 369 -651 369 -5 0 -9 3 -9 8 0 4 -17 15
-37 25 -55 26 -98 51 -101 60 -2 4 -8 7 -13 7 -5 0 -64 32 -132 71 -67 40
-142 83 -167 97 -25 14 -88 50 -140 80 -52 30 -113 65 -135 77 -22 12 -72 41
-112 63 -40 23 -77 42 -83 42 -5 0 -10 4 -10 9 0 9 -23 20 -42 21 -4 0 -20 12
-35 26 -15 13 -33 22 -40 20 -7 -3 -13 -2 -13 3 0 4 -22 20 -50 35 -27 15 -52
31 -55 37 -4 5 -11 7 -16 4 -5 -4 -9 -1 -9 4 0 6 -4 11 -8 11 -10 0 -227 123
-247 140 -8 7 -15 9 -15 4 0 -5 -4 -4 -8 1 -6 9 -341 204 -367 214 -5 2 -18
11 -29 20 -10 9 -19 14 -20 13 -1 -5 -57 26 -110 60 -22 15 -44 28 -48 28 -4
0 -36 17 -70 38 -35 21 -88 52 -118 69 -30 16 -111 62 -179 102 -68 39 -125
71 -128 71 -3 0 -17 9 -33 20 -15 11 -30 17 -34 13 -3 -3 -6 -1 -6 6 0 6 -12
16 -26 21 -15 6 -38 19 -53 29 -14 10 -51 31 -81 47 -30 15 -74 41 -97 56 -23
15 -44 28 -48 28 -3 0 -44 23 -91 50 -47 28 -87 50 -90 50 -3 0 -17 8 -32 19
-15 10 -58 36 -96 57 -38 22 -95 54 -125 72 -31 18 -68 38 -83 45 -16 6 -28
15 -28 19 0 4 -5 8 -10 8 -6 0 -40 18 -76 40 -36 22 -72 40 -80 40 -8 0 -14 4
-14 8 0 5 -24 21 -52 36 -29 15 -82 46 -118 67 -36 22 -72 42 -80 46 -8 4 -43
24 -78 45 -34 21 -64 38 -66 38 -3 0 -44 23 -93 51 -48 28 -104 61 -123 71
-19 11 -129 75 -245 141 -115 66 -225 128 -243 138 -18 9 -38 22 -45 27 -7 5
-39 24 -72 42 -33 17 -64 35 -70 40 -5 4 -35 21 -65 37 -30 17 -72 40 -92 52
-21 11 -53 29 -70 40 -18 10 -62 35 -98 55 -36 21 -72 41 -80 46 -41 24 -210
120 -243 139 -46 25 -43 26 -90 -5z m172 -1201 c118 -69 130 -76 223 -127 29
-15 60 -34 69 -42 9 -8 19 -11 22 -7 4 3 7 1 7 -5 0 -7 4 -12 10 -12 5 0 39
-18 75 -40 36 -22 71 -41 78 -43 7 -1 14 -5 17 -8 5 -6 21 -16 130 -77 25 -14
59 -34 75 -44 17 -10 37 -21 45 -25 8 -4 43 -24 78 -45 34 -21 62 -34 62 -30
0 4 4 2 8 -4 4 -6 34 -26 67 -44 33 -18 67 -38 75 -44 25 -19 80 -47 80 -42 0
3 8 -1 18 -9 9 -8 19 -14 22 -13 3 2 16 -7 29 -19 13 -12 28 -20 33 -17 4 3 8
0 8 -7 0 -7 3 -10 6 -6 3 3 15 -3 27 -13 11 -11 24 -17 29 -14 4 3 8 1 8 -5 0
-11 39 -27 55 -22 6 1 7 -1 3 -5 -5 -4 2 -13 15 -20 38 -22 72 -37 80 -36 4 1
7 -3 7 -10 0 -6 3 -9 6 -5 3 3 14 -2 25 -11 10 -9 40 -28 66 -41 26 -14 56
-31 66 -39 9 -9 17 -11 17 -6 0 5 4 5 8 -1 8 -12 37 -30 72 -47 14 -7 37 -20
51 -30 14 -9 29 -15 33 -11 3 3 6 1 6 -5 0 -6 17 -19 38 -29 20 -9 39 -19 42
-22 3 -4 14 -11 25 -17 83 -45 143 -79 163 -92 12 -8 22 -11 22 -8 0 4 10 -2
22 -13 11 -11 24 -18 28 -16 5 3 10 -2 14 -10 3 -8 10 -15 15 -15 6 0 36 -16
67 -34 32 -19 62 -32 67 -29 6 3 7 1 4 -4 -6 -10 27 -27 46 -24 4 1 7 -3 7 -7
0 -5 17 -17 37 -28 21 -10 44 -25 51 -32 8 -7 17 -10 22 -7 5 3 10 1 12 -3 3
-9 124 -82 135 -82 4 0 14 -6 22 -14 9 -8 23 -16 31 -18 8 -2 21 -9 28 -16 8
-7 18 -9 24 -6 7 4 8 2 4 -4 -6 -10 8 -18 17 -9 1 1 13 -8 26 -20 13 -12 28
-20 33 -17 4 3 8 2 8 -3 0 -4 21 -19 48 -32 26 -14 55 -31 65 -39 9 -9 17 -12
17 -8 0 4 7 0 16 -8 8 -9 22 -16 30 -16 8 0 14 -3 14 -8 0 -4 21 -18 48 -32
26 -13 75 -41 110 -62 34 -21 62 -35 62 -32 0 3 7 -2 16 -10 8 -9 22 -16 30
-16 8 0 14 -4 14 -10 0 -5 6 -10 14 -10 7 0 19 -7 26 -15 7 -8 16 -13 20 -10
5 3 10 1 12 -3 1 -5 28 -22 58 -38 30 -17 73 -41 95 -54 22 -12 60 -34 85 -48
25 -14 89 -51 143 -83 53 -32 97 -56 97 -53 0 3 7 -2 16 -10 8 -9 20 -14 25
-11 5 4 9 2 9 -3 0 -5 12 -15 28 -23 15 -7 56 -31 92 -53 36 -21 71 -39 78
-39 6 0 12 -3 12 -7 0 -11 77 -50 85 -42 5 4 5 1 1 -5 -4 -7 -3 -13 1 -13 5 0
49 -23 98 -52 50 -28 96 -51 102 -51 7 0 11 -3 8 -5 -5 -6 130 -83 141 -81 4
0 10 -3 13 -8 3 -5 26 -20 51 -34 25 -13 51 -30 58 -37 8 -7 18 -10 23 -7 5 4
9 2 9 -3 0 -5 8 -13 18 -16 21 -9 70 -36 101 -58 13 -10 28 -15 33 -12 4 3 11
-2 14 -10 3 -9 10 -16 14 -16 5 0 46 -22 92 -48 46 -26 90 -51 98 -55 8 -4 24
-13 35 -20 90 -54 186 -107 194 -107 5 0 11 -4 13 -8 4 -11 380 -224 395 -225
7 0 10 -4 7 -9 -3 -4 0 -8 6 -8 6 0 28 -11 50 -25 22 -14 40 -22 40 -18 0 4 6
-1 13 -12 8 -10 19 -15 25 -11 7 4 12 3 12 -3 0 -10 85 -59 85 -50 0 2 11 -6
25 -18 13 -13 30 -23 37 -23 7 0 13 -3 13 -8 0 -8 62 -38 69 -33 2 1 7 -1 10
-6 7 -10 108 -73 117 -73 3 0 19 -9 35 -21 16 -11 29 -17 29 -14 0 4 7 -1 16
-9 8 -9 21 -16 29 -16 7 0 15 -4 17 -9 2 -5 10 -11 18 -13 8 -2 23 -11 34 -20
11 -10 26 -18 33 -18 7 0 13 -5 13 -11 0 -6 7 -9 15 -5 8 3 15 1 15 -4 0 -5
15 -17 33 -25 17 -8 50 -26 72 -40 22 -14 47 -28 55 -32 8 -3 27 -14 41 -24
14 -10 29 -16 33 -12 3 3 6 2 6 -4 0 -9 45 -36 63 -37 4 -1 11 -6 15 -11 4 -6
21 -17 37 -25 17 -8 54 -30 83 -48 28 -18 52 -29 52 -26 0 4 11 -3 24 -15 15
-14 30 -20 37 -16 7 5 10 4 6 -2 -4 -6 2 -13 13 -16 30 -8 34 -9 52 -27 9 -8
40 -27 67 -40 28 -14 51 -29 51 -34 0 -4 7 -5 16 -2 8 3 12 2 9 -4 -5 -9 1
-12 21 -9 4 0 10 -3 13 -8 9 -13 134 -86 149 -86 6 0 12 -4 12 -8 0 -10 101
-65 112 -61 4 1 8 -2 8 -7 0 -5 18 -18 40 -30 22 -11 40 -18 40 -15 0 2 10 -4
22 -15 11 -11 25 -18 30 -15 4 3 8 1 8 -4 0 -6 19 -20 43 -32 23 -11 60 -32
82 -45 74 -44 95 -56 95 -50 0 3 9 -3 20 -13 11 -11 44 -31 73 -46 29 -15 86
-47 127 -72 41 -24 86 -50 100 -56 14 -7 31 -18 38 -25 7 -7 24 -16 38 -19 13
-3 24 -10 24 -16 0 -5 5 -6 10 -3 6 3 10 2 10 -4 0 -10 38 -27 53 -23 4 1 7
-3 7 -8 0 -6 17 -18 38 -28 20 -9 39 -20 42 -23 10 -11 120 -70 120 -65 0 3 9
-3 20 -14 11 -11 27 -20 35 -20 8 0 15 -4 15 -9 0 -8 37 -24 53 -22 4 1 7 -3
7 -8 0 -5 12 -16 28 -24 15 -7 44 -23 65 -35 20 -12 37 -19 37 -15 0 4 7 -2
15 -13 8 -10 15 -14 15 -9 0 6 3 6 8 0 7 -11 129 -85 139 -85 3 0 17 -9 33
-20 15 -11 30 -17 34 -13 3 3 6 1 6 -5 0 -7 5 -12 10 -12 6 0 19 -8 28 -17 17
-17 18 -384 16 -7888 -1 -4329 -2 -7873 -3 -7877 0 -5 -1484 -8 -3296 -8
-1812 0 -3295 3 -3296 8 0 4 -1 2121 -1 4705 l-1 4699 -26 10 c-14 6 -30 10
-34 9 -5 -1 -6 3 -3 8 6 9 -31 27 -46 23 -5 -1 -8 1 -8 6 0 4 -21 19 -47 32
-27 14 -49 28 -51 33 -2 4 -10 7 -18 7 -8 0 -14 5 -14 11 0 6 -5 9 -12 7 -6
-2 -20 4 -30 14 -10 10 -23 16 -28 13 -6 -4 -10 -2 -10 2 0 5 -13 17 -30 26
-16 10 -30 15 -30 12 0 -3 -10 3 -22 15 -12 11 -25 20 -30 20 -4 0 -37 18 -73
40 -36 22 -68 40 -71 40 -3 0 -21 11 -41 25 -20 13 -40 22 -45 19 -4 -3 -8 0
-8 6 0 6 -12 16 -27 22 -16 7 -40 20 -55 31 -16 10 -28 15 -28 10 0 -4 -6 -1
-13 8 -11 14 -39 29 -53 28 -4 0 -10 3 -13 9 -3 5 -28 21 -54 35 -26 15 -59
34 -72 43 -14 9 -25 12 -25 8 0 -5 -5 -1 -11 9 -6 9 -14 15 -20 12 -5 -4 -9
-1 -9 4 0 6 -15 17 -32 25 -18 8 -60 31 -93 50 -107 63 -140 80 -147 78 -5 -1
-8 3 -8 8 0 6 -10 14 -22 19 -13 5 -74 38 -135 74 -62 36 -113 62 -113 59 0
-4 -4 -2 -8 4 -9 14 -74 49 -84 46 -5 -1 -8 2 -8 6 0 5 -18 17 -40 28 -22 10
-40 23 -40 27 0 5 -4 5 -10 2 -5 -3 -10 -2 -10 3 0 7 -62 42 -75 42 -3 0 -15
9 -27 20 -12 11 -25 20 -29 20 -4 0 -62 32 -128 70 -67 39 -124 70 -127 70 -3
0 -12 7 -21 15 -8 8 -19 13 -24 10 -5 -4 -9 -1 -9 4 0 6 -7 11 -15 11 -8 0
-15 3 -15 8 0 4 -23 18 -50 31 -28 14 -50 29 -50 34 0 5 -7 7 -15 3 -8 -3 -15
-2 -15 2 0 13 -76 52 -85 44 -5 -4 -5 -1 -1 6 6 11 -5 17 -26 13 -5 0 -8 4 -8
10 0 5 -4 7 -10 4 -5 -3 -10 -1 -10 5 0 6 -8 14 -17 17 -10 4 -46 24 -81 45
-34 21 -64 38 -67 38 -2 0 -38 20 -79 44 -41 24 -77 42 -80 38 -3 -3 -6 -1 -6
5 0 6 -21 22 -47 36 -27 13 -64 34 -83 45 -19 12 -46 27 -60 35 -14 7 -37 21
-52 31 -16 10 -28 14 -28 10 0 -5 -4 -4 -8 2 -10 14 -115 77 -129 77 -7 0 -10
4 -7 9 3 4 0 8 -7 8 -6 0 -46 21 -88 46 -42 26 -78 47 -81 47 -3 0 -21 10 -40
21 -19 12 -37 21 -40 20 -3 0 -9 4 -15 8 -32 27 -100 66 -107 62 -4 -3 -8 0
-8 5 0 6 -5 11 -11 11 -6 0 -22 9 -36 20 -14 11 -29 17 -34 14 -5 -3 -9 -1 -9
5 0 11 -89 56 -103 53 -5 -1 -6 2 -3 7 4 5 -4 13 -16 17 -13 4 -41 19 -63 33
-36 24 -96 54 -102 52 -2 -1 -12 8 -23 19 -12 12 -25 18 -30 15 -6 -4 -10 -2
-10 3 0 8 -50 36 -59 32 -2 -1 -7 2 -10 7 -10 15 -133 86 -148 86 -7 0 -13 4
-13 8 0 5 -13 15 -30 24 -16 9 -30 13 -30 10 0 -3 -9 3 -20 13 -11 10 -33 25
-48 33 -15 7 -44 24 -64 36 -21 13 -38 21 -38 18 0 -3 -6 -1 -12 5 -23 19
-147 90 -157 90 -6 0 -11 3 -11 8 0 9 -61 38 -73 34 -5 -1 -6 2 -3 7 6 9 -18
22 -38 20 -5 0 -12 3 -15 8 -10 16 -129 82 -135 76 -3 -4 -6 -2 -6 4 0 5 -17
18 -37 29 -21 10 -49 27 -62 37 -13 9 -32 17 -43 17 -11 0 -16 5 -13 10 3 6 1
10 -5 10 -7 0 -24 9 -39 19 -15 11 -34 21 -41 23 -8 2 -21 9 -28 16 -8 7 -18
9 -24 6 -6 -4 -8 -2 -4 4 3 6 -4 14 -16 18 -13 4 -34 15 -47 25 -13 10 -27 16
-32 13 -5 -3 -9 -1 -9 4 0 5 -12 15 -27 22 -16 8 -37 21 -47 30 -17 13 -18 13
-12 0 7 -13 6 -13 -6 0 -13 15 -22 20 -97 62 -20 11 -41 24 -47 29 -6 5 -14 6
-17 2 -4 -3 -7 -2 -7 3 0 5 -26 23 -58 39 -31 17 -58 33 -60 38 -2 4 -10 7
-18 7 -8 0 -14 5 -14 11 0 6 -5 9 -12 7 -6 -2 -20 4 -30 14 -10 10 -23 16 -28
13 -6 -4 -10 -2 -10 3 0 5 -12 15 -27 23 -16 7 -44 23 -63 35 -34 20 -78 45
-177 100 -27 15 -52 30 -58 34 -5 4 -30 19 -55 32 -25 14 -63 36 -85 48 -22
13 -55 31 -73 41 -18 10 -38 22 -45 27 -7 5 -39 24 -72 42 -33 17 -66 37 -72
42 -7 6 -13 7 -13 2 0 -5 -4 -4 -8 2 -13 19 -98 64 -107 56 -4 -4 -5 -2 -2 4
7 11 -45 40 -58 33 -4 -2 -11 4 -16 14 -6 9 -15 17 -20 17 -6 0 -24 9 -40 21
-16 11 -29 17 -29 12 0 -4 -4 -3 -8 3 -10 15 -115 77 -129 77 -7 0 -13 3 -13
6 0 4 -21 18 -47 31 -27 14 -50 28 -53 31 -3 3 -30 19 -60 35 -30 16 -58 33
-62 39 -5 7 -8 7 -8 0 0 -6 -3 -5 -8 1 -4 6 -26 21 -49 33 -23 11 -44 25 -48
31 -3 5 -15 10 -26 10 -10 0 -19 4 -19 8 0 4 -27 21 -60 37 -33 17 -60 33 -60
38 0 4 -5 7 -10 7 -6 0 -40 18 -76 40 -36 22 -72 40 -80 40 -8 0 -14 4 -14 8
0 5 -26 22 -57 38 -32 16 -64 35 -71 42 -13 12 -28 16 -45 13 -5 -1 -6 3 -3 8
6 9 -52 38 -67 33 -5 -1 -6 2 -2 8 3 5 1 10 -5 10 -6 0 -28 11 -50 25 -22 14
-40 22 -40 18 0 -5 -4 -3 -8 2 -10 15 -154 98 -169 98 -6 0 -10 4 -7 9 3 4 0
8 -5 8 -6 0 -56 27 -112 60 -55 33 -103 60 -106 60 -3 0 -18 9 -34 21 -16 11
-29 17 -29 12 0 -4 -4 -3 -8 3 -4 6 -42 30 -85 53 l-78 43 -84 -51 c-47 -28
-90 -51 -95 -51 -6 0 -10 -3 -10 -7 0 -5 -20 -17 -44 -27 -25 -11 -42 -25 -39
-30 4 -6 3 -8 -2 -4 -8 8 -74 -27 -86 -45 -3 -5 -9 -8 -13 -8 -20 3 -26 0 -20
-11 4 -6 3 -8 -3 -5 -5 3 -35 -10 -67 -29 -31 -18 -61 -34 -67 -34 -5 0 -9 -4
-9 -8 0 -4 -16 -14 -35 -21 -22 -8 -33 -17 -29 -24 4 -7 4 -9 -1 -5 -9 8 -65
-22 -65 -35 0 -4 -5 -5 -10 -2 -10 6 -68 -29 -82 -50 -4 -5 -8 -6 -8 -1 0 4
-11 1 -24 -8 -14 -8 -42 -25 -63 -37 -93 -52 -128 -74 -134 -82 -3 -5 -10 -9
-15 -9 -13 1 -258 -140 -266 -152 -4 -6 -8 -7 -8 -3 0 4 -17 -4 -37 -18 -21
-14 -43 -25 -50 -25 -7 0 -13 -5 -13 -11 0 -5 -4 -7 -10 -4 -5 3 -10 2 -10 -2
0 -8 -4 -11 -77 -47 -21 -11 -40 -22 -43 -25 -3 -4 -18 -13 -35 -21 -16 -8
-33 -19 -37 -24 -3 -5 -14 -11 -23 -12 -9 -1 -24 -9 -33 -17 -10 -8 -30 -21
-47 -29 -73 -37 -115 -62 -115 -70 0 -5 -4 -7 -9 -3 -5 3 -16 -2 -24 -10 -9
-8 -18 -15 -20 -15 -3 0 -44 -22 -92 -50 -48 -27 -91 -50 -96 -50 -6 0 -7 -6
-3 -12 4 -7 4 -10 -1 -6 -9 8 -105 -40 -105 -53 0 -5 -3 -8 -7 -8 -19 3 -34
-2 -29 -9 3 -5 0 -9 -7 -9 -7 0 -68 -32 -135 -72 -68 -39 -128 -71 -133 -71
-5 0 -12 -7 -15 -15 -4 -8 -10 -12 -15 -9 -5 3 -9 0 -9 -7 0 -7 -3 -10 -6 -6
-3 3 -24 -5 -45 -19 -21 -13 -43 -24 -48 -24 -6 0 -14 -7 -19 -16 -5 -9 -12
-15 -16 -14 -9 3 -300 -162 -304 -172 -2 -5 -8 -8 -14 -8 -5 0 -56 -27 -112
-60 -57 -33 -108 -60 -114 -60 -7 0 -12 -5 -12 -11 0 -6 -6 -9 -12 -6 -10 3
-13 333 -14 1605 0 880 3 1599 7 1596 4 -2 15 3 23 12 9 8 16 13 16 9 0 -3 13
2 30 12 16 9 30 21 30 26 0 4 5 5 10 2 6 -3 10 -1 10 5 0 6 5 8 10 5 6 -3 13
1 16 9 3 9 10 14 14 11 5 -3 16 2 24 11 9 8 16 13 16 10 0 -7 82 45 91 57 3 5
9 8 13 8 12 -1 96 43 96 51 0 4 5 8 11 8 13 0 152 80 160 92 3 6 9 9 13 9 20
-3 26 0 21 9 -4 6 -3 9 2 8 11 -3 73 25 73 33 0 4 10 9 23 13 12 3 33 16 47
28 13 13 26 22 27 21 8 -7 23 -1 39 15 10 9 20 17 24 17 12 0 100 50 100 57 0
5 9 8 20 8 10 0 23 7 28 16 5 9 12 15 15 15 21 -3 27 0 22 9 -4 6 -2 9 3 8 8
-3 180 88 192 101 3 4 23 16 45 28 22 11 56 30 75 42 19 11 51 29 70 39 81 43
136 76 153 90 9 8 17 11 17 6 0 -5 4 -4 8 1 4 6 18 16 32 23 14 7 52 29 85 48
33 19 68 37 78 41 9 3 17 8 17 12 0 4 16 13 35 21 19 8 35 17 35 21 0 4 13 12
30 18 16 5 30 15 30 21 0 6 3 9 8 7 4 -2 21 4 37 14 17 11 42 24 57 30 17 6
25 16 21 22 -3 7 -3 9 2 5 8 -7 94 38 106 55 3 5 9 8 13 8 19 -3 27 0 22 7 -3
5 1 9 7 9 15 0 159 83 169 98 4 5 8 7 8 2 0 -4 18 4 40 18 22 14 44 25 50 25
6 0 9 4 6 8 -3 5 0 9 7 9 7 0 99 50 205 111 106 62 197 112 202 112 5 0 13 7
18 16 5 9 12 15 16 14 4 -1 61 29 127 66 66 38 150 86 186 106 37 20 69 41 71
47 2 6 7 9 12 6 5 -3 16 2 24 11 9 8 16 12 16 7 0 -4 7 1 15 11 8 11 15 16 15
12 0 -4 16 2 35 14 19 12 48 28 65 36 16 9 30 20 30 26 0 6 3 9 6 5 9 -9 64
21 64 35 0 6 3 8 6 5 7 -7 97 42 102 55 2 5 8 6 13 2 5 -3 9 0 9 5 0 6 4 11 9
11 10 0 132 69 141 79 3 3 10 7 15 8 6 1 48 24 95 52 47 27 105 60 130 73 25
13 47 26 50 29 3 4 30 19 60 35 30 15 57 31 60 34 3 4 19 13 35 22 65 32 130
71 133 80 2 4 8 6 13 2 5 -3 9 0 9 6 0 6 5 8 10 5 6 -3 10 -3 10 2 0 4 19 17
43 28 23 11 46 25 50 33 5 7 12 10 16 8 4 -3 18 4 29 15 12 11 22 17 22 14 0
-6 61 25 70 36 4 5 98 58 167 94 13 7 20 15 16 18 -3 4 3 7 14 7 11 0 26 7 33
15 7 8 16 13 20 10 5 -3 11 -1 15 5 3 6 25 20 48 31 23 12 45 27 49 33 4 6 8
7 8 3 0 -5 12 0 28 10 43 28 64 41 100 59 17 9 32 21 32 26 0 5 4 7 8 4 5 -3
21 4 38 15 16 11 44 27 62 35 17 9 32 21 32 26 0 5 4 7 9 3 5 -3 17 2 25 11 9
8 16 13 16 9 0 -3 17 6 37 20 21 14 43 25 50 25 7 0 13 4 13 8 0 5 19 17 41
28 23 10 47 23 53 29 6 5 37 24 69 40 31 17 57 33 57 38 0 4 7 7 15 7 9 0 41
16 71 35 30 19 57 35 60 35 3 0 26 14 51 30 24 17 46 30 49 30 9 0 189 105
192 112 2 5 8 8 14 8 12 0 151 80 159 92 3 6 9 9 13 9 20 -3 26 0 20 12 -4 6
-4 9 1 5 8 -8 64 19 77 36 3 5 13 11 22 12 8 1 29 12 46 24 16 12 30 18 30 13
0 -4 4 -3 8 2 4 6 21 17 37 25 17 8 39 23 49 33 11 9 25 17 32 17 7 0 19 6 26
13 13 11 44 29 148 84 24 13 47 28 51 34 3 6 9 10 13 10 8 -2 69 29 76 38 3 4
16 12 30 18 14 7 48 26 75 42 28 16 74 42 103 57 28 14 52 31 52 37 0 6 3 8 6
4 4 -3 23 5 43 18 19 14 41 25 48 25 7 0 13 5 13 10 0 6 7 10 15 10 8 0 24 9
35 20 11 11 23 20 28 20 18 1 60 25 56 32 -3 5 -2 8 3 7 18 -3 30 2 51 21 12
12 22 18 22 15 0 -4 15 2 33 13 83 51 103 63 120 68 9 4 17 10 17 15 0 5 3 8
8 7 10 -2 44 13 62 27 8 7 39 25 68 40 28 15 52 31 52 37 0 5 4 7 10 3 5 -3
18 3 30 15 11 11 21 19 23 19 10 -6 46 15 41 23 -4 6 -2 8 4 4 6 -3 16 0 24 7
7 7 18 15 23 17 28 8 55 24 55 32 0 4 3 7 8 6 13 -4 162 83 162 95 0 5 3 8 6
4 8 -7 95 40 106 57 4 6 8 8 8 3 0 -4 18 4 40 18 22 14 44 25 50 25 6 0 8 5 5
10 -4 6 -3 9 2 8 12 -4 133 61 133 71 0 4 6 8 13 8 15 0 159 83 169 98 4 5 8
6 8 2 0 -5 13 1 29 12 15 11 40 25 55 31 14 5 26 14 26 20 0 5 3 9 8 8 14 -3
62 22 62 32 0 6 4 9 9 5 6 -3 20 5 32 17 12 13 19 18 15 11 -3 -6 31 11 76 38
44 27 83 49 86 49 3 0 58 -30 121 -67z"/>
</g>
</svg>
